<?xml version="1.0" encoding="UTF-8"?>
<svg id="Layer_2" data-name="Layer 2" xmlns="http://www.w3.org/2000/svg" xmlns:xlink="http://www.w3.org/1999/xlink" viewBox="0 0 2150.58 442.45">
  <defs>
    <style>
      .cls-1 {
        fill: url(#linear-gradient);
      }

      .cls-1, .cls-2, .cls-3, .cls-4 {
        stroke-width: 0px;
      }

      .cls-2 {
        fill: #40f;
      }

      .cls-3 {
        fill: url(#linear-gradient-2);
      }

      .cls-4 {
        fill: url(#linear-gradient-3);
      }
    </style>
    <linearGradient id="linear-gradient" x1="413.75" y1="-53.59" x2="-34.68" y2="394.84" gradientUnits="userSpaceOnUse">
      <stop offset="0" stop-color="#40f"/>
      <stop offset="1" stop-color="#00a5ff"/>
    </linearGradient>
    <linearGradient id="linear-gradient-2" x1="364.22" y1="-79.58" x2="-25.21" y2="309.85" xlink:href="#linear-gradient"/>
    <linearGradient id="linear-gradient-3" x1="547.91" y1="80.57" x2="99.48" y2="529" xlink:href="#linear-gradient"/>
  </defs>
  <g id="Layer_1-2" data-name="Layer 1">
    <g>
      <g>
        <polygon class="cls-1" points="462.15 1.48 462.15 256.69 0 256.69 0 1.48 117.53 1.48 117.53 139.16 344.62 139.16 344.62 1.48 462.15 1.48"/>
        <rect class="cls-3" x="172.35" y="1.48" width="117.53" height="104.1"/>
        <polygon class="cls-4" points="462.16 435.17 .02 435.17 41.99 317.64 420.19 317.64 462.16 435.17"/>
      </g>
      <g>
        <path class="cls-2" d="m918.9,0v84.28h-135.35v351.14h-89.39V84.28h-135.35V0h360.08Z"/>
        <path class="cls-2" d="m890.74,365.51c-13.84-24.05-20.75-50.76-20.75-80.12s6.91-56.08,20.75-80.13c13.83-24.05,33.09-42.88,57.77-56.5,24.69-13.62,52.57-20.43,83.64-20.43s58.95,6.81,83.64,20.43c24.69,13.62,43.94,32.46,57.77,56.5,13.84,24.05,20.75,50.76,20.75,80.13s-6.91,56.08-20.75,80.12c-13.83,24.05-33.09,42.88-57.77,56.51-24.69,13.62-52.57,20.43-83.64,20.43s-58.95-6.81-83.64-20.43c-24.69-13.63-43.94-32.46-57.77-56.51Zm216.75-80.12c0-23.84-7.02-43.31-21.07-58.42-14.04-15.11-32.13-22.67-54.26-22.67s-40.22,7.56-54.26,22.67c-14.05,15.11-21.07,34.58-21.07,58.42s7.02,43.31,21.07,58.42c14.04,15.11,32.13,22.66,54.26,22.66s40.22-7.55,54.26-22.66c14.05-15.11,21.07-34.58,21.07-58.42Z"/>
        <path class="cls-2" d="m1188.07,135.35h90.66l30.65,128.96c5.11,21.71,9.15,42.35,12.13,61.93h1.28c3.83-26.82,7.67-47.46,11.49-61.93l30.65-128.96h99.59l30.65,128.96c3.84,14.9,7.67,35.54,11.49,61.93h1.28c2.98-19.58,7.03-40.22,12.13-61.93l30.65-128.96h90.67l-96.4,300.07h-83.64l-37.03-158.33c-4.25-18.3-7.23-34.9-8.94-49.8h-1.28c-1.7,14.9-4.68,31.49-8.94,49.8l-37.03,158.33h-83.63l-96.4-300.07Z"/>
        <path class="cls-2" d="m1718.1,314.12c4.68,18.72,13.4,32.99,26.18,42.77,12.76,9.79,28.51,14.68,47.24,14.68,16.6,0,29.91-2.13,39.91-6.38,10-4.26,17.98-11.07,23.94-20.43h79.8c-8.94,32.77-26.6,57.25-52.99,73.42-26.39,16.18-55.97,24.27-88.75,24.27-31.07,0-58.53-6.81-82.36-20.43-23.83-13.63-42.25-32.35-55.22-56.19-12.99-23.83-19.47-50.65-19.47-80.44s6.59-56.08,19.79-80.13c13.19-24.05,31.5-42.88,54.9-56.5,23.41-13.62,50.01-20.43,79.8-20.43s56.29,6.81,79.49,20.43c23.19,13.62,41.29,32.46,54.26,56.5,12.99,24.05,19.47,50.76,19.47,80.13,0,11.06-.2,20.64-.63,28.73h-225.37Zm-.64-58.74h146.2c-2.98-16.17-11.28-29.47-24.9-39.9-13.62-10.43-29.58-15.64-47.89-15.64s-34.58,5-47.56,15c-12.99,10-21.6,23.52-25.86,40.54Z"/>
        <path class="cls-2" d="m2009.8,166.63c22.35-25.54,55.01-38.31,98-38.31,15.32,0,29.58,1.71,42.77,5.11v79.17c-5.95-.43-13.19-.64-21.7-.64-22.56,0-38.95,4.89-49.17,14.68-10.22,9.79-15.32,24.26-15.32,43.41v165.36h-88.1v-172.38c0-38.73,11.17-70.87,33.51-96.41Z"/>
      </g>
    </g>
  </g>
</svg>